<?xml version="1.0" encoding="utf-8"?>
<!-- Generator: Adobe Illustrator 19.0.0, SVG Export Plug-In . SVG Version: 6.00 Build 0)  -->
<svg version="1.1" id="Layer_1" xmlns="http://www.w3.org/2000/svg" xmlns:xlink="http://www.w3.org/1999/xlink" x="0px" y="0px"
	 viewBox="322 -104 470 232" style="enable-background:new 322 -104 470 232;" xml:space="preserve">
<style type="text/css">
	.st0{fill:#372000;}
	.st1{fill:#928A8A;}
	.st2{fill:#252024;}
	.st3{fill:#382002;}
	.st4{fill:#918A8A;}
	.st5{fill:#F9D510;}
	.st6{fill:#FD7020;}
	.st7{fill:#F2C1AC;}
	.st8{fill:#FDD60C;}
	.st9{fill:#F1CF0F;}
	.st10{fill:#F7D40E;}
	.st11{fill:#030202;}
	.st12{fill:#814B13;}
	.st13{fill:#513A11;}
	.st14{fill:#935016;}
	.st15{fill:#4B3510;}
	.st16{fill:#BCB201;}
	.st17{fill:#9E950D;}
	.st18{fill:#786F6C;}
	.st19{fill:#352B26;}
	.st20{fill:#C3BFBF;}
	.st21{fill:#8E8784;}
	.st22{fill:#736864;}
	.st23{fill:#C5C1C1;}
	.st24{fill:#594B1E;}
	.st25{fill:#F5CBB4;}
	.st26{fill:#5C5121;}
	.st27{fill:#674D1F;}
	.st28{fill:#695A39;}
	.st29{fill:#513E20;}
	.st30{fill:#A2978A;}
	.st31{fill:#5A4F1D;}
	.st32{fill:#615338;}
	.st33{fill:#4D3E1A;}
	.st34{fill:#504514;}
	.st35{fill:#7E6621;}
	.st36{fill:#846A53;}
	.st37{fill:#5F5621;}
	.st38{fill:#66581B;}
	.st39{fill:#FD7120;}
	.st40{fill:#FE7120;}
	.st41{fill:#FAD508;}
	.st42{fill:#BE4F00;}
	.st43{fill:#BF4F00;}
	.st44{fill:#020100;}
	.st45{fill:#0198DF;}
	.st46{fill:#FCDE45;}
	.st47{fill:#C0B300;}
	.st48{fill:#4A2909;}
	.st49{fill:#FEEA3B;}
	.st50{fill:#FEFEFE;}
	.st51{fill:#F6F6F6;}
	.st52{fill:#F2F2F2;}
	.st53{fill:#F7D3BC;}
	.st54{fill:#F5F5F5;}
	.st55{fill:#837F7D;}
	.st56{fill:#C04F00;}
	.st57{fill:#914201;}
	.st58{fill:#FEE145;}
	.st59{fill:#FD8441;}
	.st60{fill:#BD4E01;}
	.st61{fill:#382000;}
	.st62{fill:#D02E27;}
	.st63{fill:#FBC5A6;}
	.st64{fill:#FEA16E;}
	.st65{fill:#FEB78F;}
	.st66{fill:#E59B8F;}
	.st67{fill:#FD8644;}
	.st68{fill:#532905;}
	.st69{fill:#AAA101;}
	.st70{fill:#CE9989;}
	.st71{fill:#583503;}
	.st72{fill:#F7DC3F;}
	.st73{fill:#FCFBFB;}
	.st74{fill:#452605;}
	.st75{fill:#BCB101;}
	.st76{fill:#FA7020;}
	.st77{fill:#FA945A;}
	.st78{fill:#B4AA01;}
	.st79{fill:#FE823D;}
	.st80{fill:#FE975D;}
	.st81{fill:#FE8B4A;}
	.st82{fill:#6D3506;}
	.st83{fill:#019DE7;}
	.st84{fill:#938B8B;}
	.st85{fill:#D84E40;}
	.st86{fill:#FEAE81;}
	.st87{fill:#F56C1E;}
	.st88{fill:#D5BF04;}
	.st89{fill:#1E88E4;}
	.st90{fill:#EFD953;}
	.st91{fill:#F3C243;}
	.st92{fill:#F3C045;}
	.st93{fill:#EA681B;}
	.st94{fill:#E9E7E7;}
	.st95{fill:#EEECEC;}
</style>
<g>
	<path class="st0" d="M348.8,4.9c0-2,1.9-3.6,1-5.7c0.3-0.5,0.7-0.8,1.2-1c7.4,0.4,14.5,1.5,19.3,8.1c1.5,1-1.8,3.3,1,3.9
		c2.4,0.5,3.7-0.7,4.5-2.8c0.3-0.9,0.5-1.9,1.4-2.5c4,0.7,7.9,0,11.8-0.5c2.8-0.3,5.4-1.3,8,0.7c1.3,0.9,2.9,0.4,4.2-0.5
		c1.8-1.2,3.7-1.3,5.7-0.7c0.5,0.2,0.9,0.4,1.3,0.7c0.7,0.9,0.8,1.9,0.4,2.9c-0.3,0.5-0.7,0.7-1.2,0.7c-2.5-0.9-4.9,0.1-7.1,0.8
		c2,9.3-1.2,17.9-4.7,26.4c0.8,9.5,4.6,18.3,7.3,27.4c1,3.4,2.3,6.5,1.6,10.2c-0.2,1.2-0.9,3.6,2,3.2c1.4-0.9,2.6-2.3,4.5-1.4
		c0.7,1,0.1,1.9-0.4,2.7c-1.9,2-3.6,4.3-6.1,5.2c0.5,3.1,3.9,5.9,0.9,9.4c-0.6-1.1-1.5-1.3-2.5-0.9c-3.7,1.5-6.6-0.1-9.1-2.4
		c-2.1-2-4.8-2.6-6.9-1.5c-5.7,3.1-10.8,1.5-16-1.1c-2.9-1-3-3.6-3.3-6.1c1.8-3.6,3.4-7.2,3-11.4c-0.2-1.9,1.2-3.4,2.3-4.8
		c5.7-7.8,10.6-16.1,16-24.1c3.4-5,3.4-9.5-0.1-14.3c-2.2-3.6-5.3-6.3-8.9-8.5c-4.6-2.8-4.7-2.8-6.8,2c-5.3,12.1-8.3,24.9-9.8,38
		c-0.5,4.5-1.1,8.8-3.4,12.9c-1.1,1.9-2,4.3-0.6,6.6c-0.8,3.3-1.1,6.7-1.5,10c-1,3.4-0.2,6.9-0.7,10.4c-0.3,1.8-0.6,3.6-1.7,5.1
		c-1,0.6-1.6,0.6-1.4-0.8c0-3.9,0-7.9,0-12.2c-3.4,1.2-6.6,1.1-9.7,0c-5.4-1.9-6.7-0.8-7.2,5.2c0.4,0.7,0.2,1.1-0.6,1.2
		c-4.1-1.7-4.5-5.5-4.7-9.1c-0.3-4.8-0.2-9.6,0-14.4c1.9-16.6,9.7-31,16.4-45.9c2.8-6.3,4.8-12.8,6.4-19.4c0.3-1.3,1.4-3-0.2-4.1
		c-2-1.3-2.4,1-3.4,1.9C350.3,4.9,349.7,5.4,348.8,4.9z"/>
	<path class="st1" d="M657.9,67c0-12.3,0.2-24.7-0.1-37c-0.1-4.9,1.7-6.5,6.5-6.3c5.5,0.3,11.3-1.1,16.4,0.4
		c7.3,2.1,13.1-2.2,19.7-2.4c5.5-0.1,10.2,1.5,14.1,5.2c2.2,2.1,3.3,1.5,5.2-0.3c8.5-7.5,20.7-6.8,28.2,1.4c3.3,3.6,4.1,8,4.1,12.5
		c0.2,21.5,0.1,43,0.2,64.5c0,3.6-1.3,5.2-5,5.1c-6.2-0.2-12.3-0.2-18.5,0c-4.4,0.2-5.8-1.7-5.8-5.9c0.1-18.8,0.1-37.6,0-56.5
		c0-1.8,1.4-5.2-1.6-5.2c-2,0-1.1,3.4-1.1,5.2c-0.1,18-0.1,36-0.2,54c0,7.8-0.5,8.3-8.1,8.3c-5.2,0-10.3-0.2-15.5,0.1
		c-5.1,0.3-6.3-2.4-6.3-6.7c0-17.5,0-35,0-52.5c0-2.3-0.1-4.7-0.1-7c0-0.8,0-1.8-1.1-1.8c-0.9,0-1.4,0.8-1.5,1.7
		c-0.1,1.5-0.2,3-0.2,4.5c0,18.5-0.1,37,0.1,55.5c0,4.7-1.4,6.7-6.3,6.4c-5.6-0.3-11.3-0.3-17,0c-4.7,0.2-6.1-1.7-6.1-6.2
		C658,91.7,657.9,79.4,657.9,67z"/>
	<path class="st1" d="M420.2,48.9c1.8-5.8,1.2-11.9,1.4-17.7c0.5-15,10.8-23.8,24.3-25.9c11.4-1.8,22.6-0.5,31.8,7.7
		c6.1,5.4,8.3,12.4,8.3,20.1c0.1,17.9,2,14.7-14.5,15c-3,0.1-6,0-9,0c-6.4,0-6.5-0.3-6.7-6.9c-0.1-3.8-0.5-7.6-0.8-11.4
		c-0.1-1,0.3-2.7-1.4-2.6c-1.1,0-1.4,1.3-1.4,2.3c0,7.5,0,15,0,22.5c0,2.8,2.2,1.9,3.7,1.9c8.2,0,16.3,0.2,24.5-0.1
		c4.4-0.1,5.9,1.6,5.9,5.8c-0.1,15.3-0.1,30.6,0,45.9c0,4-1.5,5.8-5.6,5.6c-4-0.2-9,1.4-11.8-0.4c-5.5-3.5-8.9,0.2-13.1,1.5
		c-14.1,4.6-30.8-5.6-33.7-20.7c-0.3-1.5,0.3-3.5-2.1-3.8c1.8-3,3.3-1.2,4.8,0.4c1.1,2.2,1.5,4.7,2.5,7.1
		c6.1,14.8,25.9,18.6,34.3,9.3c2.2-2.5,4.3-2.6,6.3,0.6c1.6,2.5,11.2,3.5,13.4,1.7c1.2-0.9,1.2-2.3,1.2-3.7
		c0.1-13.8,0.1-27.6,0-41.5c0-2.9-1.4-4.2-4.3-4.2c-5.5,0-11-0.1-16.5,0c-2.2,0-5.2-0.9-5.9,2.2c-0.7,3.2-1.4,6.7,1.1,9.5
		c4,4.5,4.7,18.4,1.2,23.3c-1.1,1.6-2.7,2.5-4.7,2.3c-2.2-0.3-3.6-1.6-4.4-3.6c-0.7-1.9-0.6-3.9-0.6-5.9c0-17.6,0-35.3,0-52.9
		c0-0.5,0-1,0-1.5c0.2-5,2-7.7,5.2-7.8c3.1-0.1,5.1,2.6,5.5,7.7c0.3,3.2,0.1,6.3,0.2,9.5c0,2.9,1.3,4.3,4.3,4.3c4.8,0,9.7,0,14.5,0
		c3.3,0,4.2-1.7,4.3-4.7c1.6-26.4-16.5-33.4-35.6-30.9c-11,1.4-21.7,7.9-21.7,24.8c0,6.6-0.2,13.3-1.7,19.8
		C419.7,54,419.6,51.7,420.2,48.9z"/>
	<path class="st1" d="M550.2,71.8c1.4,0.8,2.3,1.9,2.7,3.4c3.5,13.1-3.9,29.4-16.1,34.5c-11.5,4.9-32.8,3.2-40.9-8
		c-4.9-6.9-5.4-14.6-5.5-22.3c-0.2-10.5-0.5-20.9,0.5-31.4c1.6-17.2,10.9-22.9,24.8-24.9c5-0.7,10.2-0.5,15.3,0.8
		c12.1,3.1,19.4,10.7,21,23.1c0.8,6.1,0.7,12.3,1.1,18.4c0.1,2.5-0.5,4.6-2.9,5.9c-7.7,0.7-15.4,0.1-23.1,0.3
		c-4.7,0.3-6.1,3-5.7,7.4c0.3,3.3-0.3,6.6,0.6,9.9c1-3.6,0.4-7.2,0.7-10.8c0.2-2.9,0.7-5.7,4.3-6.4
		C534.7,71.7,542.4,71.2,550.2,71.8z"/>
	<path class="st1" d="M621.1,107.7c0,4.1-0.1,7.3,0,10.6c0.1,3.3-1.4,4.9-4.8,4.8c-6.8-0.1-13.7-0.1-20.5,0c-3.3,0-4.9-1.3-4.9-4.7
		c0-29.7,0-59.3,0-89c0-3.1,1.4-4.6,4.5-4.6c7,0,14.3-1.2,20.9,0.4c5.2,1.2,8.8-0.8,13.1-1.9c11.5-2.8,23.5,3.6,23.8,16.9
		c0.4,17.5,0.6,34.9-0.1,52.4c-0.7,16.8-15.2,24.9-29.8,16.3C623,108.7,622.5,108.5,621.1,107.7z"/>
	<path class="st2" d="M364-77c2.3-3.1,1.5-7.7,4.8-10.4c1.6,2.3-0.6,4.3-0.5,6.6c0.6-1.4,1.8-1.3,3-1.4c3.4,0.5,6.8,1.6,9.8,3
		c4.6,2.2,8.8,2.1,13.1-0.4c2.4-0.6,5.7,1.7,7-2.3c0.3-0.4,0.6-0.7,1-1c0.2-0.1,0.4-0.1,0.7-0.2c0.6,0.1,1.3,0.2,1.9,0.2
		c3.5,2.3,7.4,4.4,6.4,9.7c-0.4,1.7-0.7,3.5-1.1,5.2c-2,6.1-6.6,8.4-12.7,8.2c-3,0.1-5.5-0.9-7.5-3.3c-2-2.5-3.9-2-5.8,0
		c-1.5,1.6-3.2,2.9-5.5,3.1c-4.5,0.4-8.8,0.1-12-3.7c-1-1.1-1.5-2.5-2.5-3.5H364C362-70.3,359.9-73.7,364-77z"/>
	<path class="st3" d="M423.9,87.9c-1.3-0.8-2.6-1.6-4-0.1c-3.8,5.1-2.6,11.3-3.5,17c-0.5,3.4,2.8,4.6,4.6,6.7c1.2,1.4,2.6,2.5,4,3.7
		c0.3,0.6,0.1,1-0.6,1.2c-6-1.8-10.5-7.3-10.7-13.1c-0.2-5.6,1-11.1,1.4-16.7c0.2-3.3,0.3-6.5,0.1-9.8c0.6-2.1,0-4.1-0.4-6.1
		c-1.6-4.5-0.1-8.8,0.7-13.2c2.1-1.9,2.9,0.3,3.8,1.4c2.7,3.4,4.8,7.1,6.3,9.9c-2.4-3.9-3.6-9.5-5.8-14.8c-0.7-1.7-0.5-1.7-1.9-0.4
		c-0.9,0.9-1.6-0.8-1.7-1.7c-0.4-2.6-0.7-5.3,0.5-7.8c0.4-0.4,0.8-0.4,1.3-0.2c0.8,1.6,1.5,3.2,2.3,4.9c0.9,1.7,1.8,3.5,2.7,5.2
		c2.2,1.1,2.4,3.4,3.1,5.4c1.8,5,3.4,10,6.3,14.5c1.8,2.8,3.9,4.7,7.5,5.1c4.3,0.4,5.1,2.8,2.6,6.3C438.2,91.4,431,92.4,423.9,87.9z
		"/>
	<path class="st4" d="M586.1,59c0,15.3-0.1,30.6,0.1,45.9c0.1,4.8-1.6,6.6-6.4,6.3c-4.5-0.3-9-0.1-13.5-0.1
		c-10.4,0-10.4,0-10.4-10.2c0-28.1,0-56.2,0-84.3c0-1.7,0.1-3.3,0-5c-0.1-3.4,1.5-4.8,4.8-4.8c6,0.1,12,0,18,0
		c7.3,0,7.4,0.1,7.4,7.2C586.1,29,586.1,44,586.1,59z"/>
	<path class="st5" d="M348.8,4.9c1.6-0.2,1.5-1.7,1.8-2.6c0.8-2.2,1.7-2.6,4-1.7c2.1,0.8,2.2,1.4,1.8,3.5
		c-2.7,12.8-7.7,24.8-13.6,36.5c-4.9,9.6-7.7,19.9-9.7,30.4c-1.3,3.6-0.3,7.3-0.6,11c-0.1,0.7,0.2,1.8-0.9,1.9
		c-1.3,0.1-1.4-1.1-1.7-2c-0.9-1.6-1.1-3.4-1.8-5.1c-0.1-0.5-0.1-1-0.2-1.4c-0.4-4.5-0.7-9.1,0-13.6c0.1-0.5,0.1-1.1,0.2-1.6
		c1.9-5.7,2.4-11.8,4.9-17.4c1.7-4.7,3.1-9.5,5-14.1C341.4,20.7,345.2,12.8,348.8,4.9z"/>
	<path class="st4" d="M785,24c2.1,1.2,2.1,3.2,2.1,5.2c0,25.2-0.1,50.3,0.1,75.5c0,4.1-1.6,5.6-5.7,5.5c-6.7-0.2-13.3-0.1-20,0
		c-3.1,0-4.6-1.3-4.6-4.4c0-25.8,0-51.7,0-77.5c0-1.8,0.4-3.3,2-4.2c1.2-1,2.6-1.4,4.1-1.3C770.4,23.2,777.9,21.1,785,24z"/>
	<path class="st6" d="M352.3-38c2.1-1.2,2.1-4.2,4.4-5.1c0.9-0.4,1.8-0.8,2.9-0.4c1.7,1.8-0.2,3.1-0.6,4.6c-0.8,1.5-2.2,2.4-3.5,3.4
		c-1.7,1-3.2,2.2-4.5,3.8c-0.3,0.3-0.6,0.7-0.9,1c-2,0.9-2.8,3-3.9,4.5c1.3-0.6,1.1-2.9,3-3.1c1.8,0.1,3.6-0.5,5.4-0.5
		c3.2,0,5.3-0.7,4.7-4.5c2.6-1.3,4.9-0.1,7.4,0.6c1.8,0.9,3.6,1.9,4.7,3.7c0.1,0.9-0.3,1.4-1,1.8c-0.7,0.3-1.4,0.3-2.2,0.2
		c-2-0.9-3.3-1.4-4.7,1.3c-1.9,3.7-5.7,6-8.3,9.2c-0.5,0.4,0.2,0-0.3,0.4c-1.7,1.1-3.7,1.9-3,4.6c-2,1.2-3.6,3-6,3.7
		c-3.2,1.9-6.2,1.6-8.9-1.1c-2.3-1-2.1-2.4-1.1-4.4c3-6,6-12.1,9.9-17.6C347.9-33.9,349.4-36.7,352.3-38z"/>
	<path class="st7" d="M367-65c3.1,4.2,7.4,4.5,12,4.1c0.1,0.5-0.1,1.2-0.5,1.2c-2.4,0.1-0.7,0.7-0.2,1.2c4.1,2.5,8.5,3,13,1.6
		c1-2.6,4.5-1.6,5.6-3.9c6.2,1,9.6-3.2,13.1-7c1.7,1.9,1.2,3.9,0.2,5.8c-2.3,3.6-4.4,7.5-7.5,10.6c-0.7,1-1.7,1.7-2.7,2.4
		c-1.1,0.7-2.3,1.1-3.6,1.4c-9.2,3.1-17.9,2.2-25.8-3.8c-2.8-3.2-5.1-6.7-5.4-11.2C365.4-63.8,365.2-65,367-65z"/>
	<path class="st8" d="M354.8,101.9c0.7-5.3,1.4-10.7,2.1-16c2.7,1.9,0.8,5.3,2.3,8.3c3.2-6.1,3.7-12.3,4.9-18.3
		c1.2-0.2,2,0.4,2.7,1.3c3.2,7.2-0.9,13.2-3.4,19.4c-1.7,4.2-3.6,8.1-3.5,12.8c0.2,11.5-3.5,14.4-15,12.7l0,0
		c-2-3.9,1.9-5.7,3.1-8.4c2-1.3,2.4-3.8,3.7-5.6C353.9,106.5,353.2,103.7,354.8,101.9z"/>
	<path class="st9" d="M415.6,76c3,7,0.8,14.1-0.4,20.9c-1.6,9.3,2,15.2,9.7,19.5c1.5,0.5,3.7,0.8,3.3,2.9c-0.3,2-2.4,1.1-3.8,1.2
		c-1.3,0.1-2.6,0-3.9,0c-2.8-1.2-5.6-2.3-8.7-2c-3.4-1.5-2.9-4.5-2.8-7.3c-0.3-1.7,0-3.2,0.9-4.7c1.8-1.4-1.5-2.2-0.4-3.5
		c0.4-2-0.7-4.1,0.2-6.1c3.1-1.7,4.4-4.2,4.1-7.8c-0.2-2.3-0.1-4.7,0.1-7c0.3-2.8-0.8-4.1-3.7-3.8c-0.4-0.3-0.6-0.6-0.4-1.1
		c0.4-0.7,0.8-1.4,1.2-2.1C413.2,72.1,414.5,73.3,415.6,76z"/>
	<path class="st10" d="M432-7.4c-4.6,2.5-9.2,5-13.9,7.5c-5.9,3.1-6.1,3-6.4-3.4c2-4.5,3.7-9.1,7.6-12.4c3.7-1.2,6.7,0.9,9.9,2.2
		C430.8-11.8,433.5-10.5,432-7.4z"/>
	<path class="st11" d="M371.2-81.1c-8.8,1-0.7-4.5-2.4-6.2c-0.5-2.8,2.1-3.6,3.5-3.9c4.4-0.9,8.2-2.9,11.7-5.5c2-1.5,5,2.2,6.6-1.2
		c0.9,0.6,2.1,1.2,1.6,2.7c0.7,2.1,2.5,2.7,4.3,3.4c1.3,0.5,2.4,1.3,0.7,2.7c-5.7,3.1-11.4,4.4-18,2.2
		C374.5-88.5,374.2-87.9,371.2-81.1z"/>
	<path class="st1" d="M759,23c-2-2.5-3-13.4-1.4-15.6c1-1.5,2.5-1.5,4-1.5c7,0,14,0.1,21,0c3.1,0,4.9,1.3,4.5,4.4
		c-0.5,4.3,2,9-2,12.8C776.3,23.8,767.7,23.8,759,23z"/>
	<path class="st12" d="M344.9,122c0.5,0,1-0.2,1.5-0.1c9.5,1.4,12.7-2.9,12.5-12.4c-0.2-8.1,4.5-14.4,6.6-21.6
		c1-3.5,2.6-6.9,0.4-10.4c-0.3-0.5-0.3-1,0-1.5c2.7,0.4,3,1.9,2.1,4.1c1,2,1.9,4,2.9,6.1c-3.5,5.2-6.2,10.9-9,16.5
		c-1.4,2.8-0.9,5.5-0.7,8.3C361.8,121.4,355.1,126,344.9,122z"/>
	<path class="st13" d="M371-52.6c8.1,5.9,16.9,6.5,26.1,3.7c0.1,1.9-1.4,2.5-2.6,3c-2.2,0.8-0.7,1.9-0.5,2.9
		c-2.7,2.3-5.5,0.2-8.2,0.3c-6.5-1.6-13-2.4-19.6-0.4c-1.9,0.6-3.9,1-5.8,0c-1.2,0-2.5,0.1-3.7,0.1c1.5-1.9,2.2-4.7,5.3-4.9
		c0.3,0.2,0.5,0.5,0.6,0.8c2.9-0.3,6.2,0.8,8.3-2.4c-0.2-0.4-0.3-0.8-0.3-1.2C370.5-51.4,370.4-52.1,371-52.6z"/>
	<path class="st13" d="M399.8-50.1c0.1-1.4,1.9-0.8,2.3-1.8c1-0.6,1.5,0.1,2,0.8c5.7,0,7.4,5,10.4,8.3c6.8,7.5,13.5,15.1,17.4,24.6
		c0.5,1.2,1.8,2.1,0.3,3.5c-0.2,0-0.5-0.1-0.7-0.1c-2.5-1.4-3.3-4-4.4-6.3s-2.4-4.3-4.7-5.4c-1.3-1.1-2.2-2.5-2.3-4.3
		c-5-6.7-8.7-15.2-19.1-15c-1.2,0-2.3-0.2-3.2-1.1c-0.3-1.4,0.8-1.5,1.7-1.8c1.2-0.3,2.5-0.2,3.7-0.2c-0.8,0-1.6,0-2.3-0.2
		C400.4-49.4,400.1-49.7,399.8-50.1z"/>
	<path class="st14" d="M410.2,97c-0.4,2.1,1.7,4.1,0,6.2c-2.2-0.6-1.1-3-2.3-4.2c-0.8-2.3-1.7-4.7-2.5-7c0.5-0.8,0.4-1.5,0-2.3
		c-3.1-5.8-0.5-9.6,4.5-12.6c0.1,0.3,0.2,0.5,0.2,0.8C409.3,84.3,411.6,90.6,410.2,97z"/>
	<path class="st15" d="M417.8,44c-0.3,0-0.5,0-0.8,0c-1.2-0.8-1.5-2.1-1.9-3.4c-1-9.1-3-18-6.9-26.4c-0.4-2-1.6-4.1-0.4-6.2
		c0.2,0,0.3-0.1,0.5-0.1c1.7-2.4,1.6-7.1,6.7-4.8c-2,4.6-5.8,8.1-2.6,14.5C416.4,25.6,418.1,34.8,417.8,44z"/>
	<path class="st16" d="M330,80.9c0.4,0.7,0.9,1.3,1.5,2.2c1.4-4-0.8-8.4,1.6-12.1c-0.1,4.7-0.2,9.5-0.2,14.2c0,3.9,1.2,7.4,4,10.2
		c1.3,0.9,3.3,2.2,1.7,3.6c-2.1,1.8-3.5-1.1-5.2-2c-1.7-2.2-1.4-5-2.4-7.5C330.9,86.7,328.5,84,330,80.9z"/>
	<path class="st17" d="M415,3.1c-2.5,0.4-5.2,0.3-4.4,4.4c0.3,1.5-1.2,1.5-2.2,0.5c-0.2-1-0.3-1.9-0.5-2.9c-2.1-2,1-4.1-0.1-6.2
		c1.5-1.5,2.8-3.2,5.2-3.1c0,0.6,0.1,1.3,0,1.9c-0.3,2.7-0.3,4.7,3.2,2.6c0.5-0.3,1.3-0.1,1.9-0.2C417.6,1.6,416.6,2.6,415,3.1z"/>
	<path class="st18" d="M371-52.6c0,0.8-0.1,1.6-0.1,2.5c-0.3,0.3-0.7,0.3-1,0c-3-5.3-6.2-10.5-5.8-16.9c1.6-0.2,2.4,0.7,2.9,2.1
		C364.5-59.6,368.6-56.4,371-52.6z"/>
	<path class="st19" d="M396.8-89.9c-0.2-3-5.9-1.3-4.6-5.4c3.6,3.1,8.7,4.6,10.6,9.7c0.3,0.9,1,1.6,0.1,2.5h0.1
		C399.5-83.9,397.8-86.6,396.8-89.9z"/>
	<path class="st20" d="M759,23c8.7,0,17.4,0,26.1,0c0,0.3,0,0.6,0,0.9c-8.7,0-17.4,0-26.1,0C759,23.7,759,23.3,759,23z"/>
	<path class="st21" d="M364-77c-2.1,3.3,0.1,6.6,0,9.9c-2.9-1.2-4.4-3.4-4.1-6.6C360.1-76.1,361.9-76.8,364-77z"/>
	<path class="st22" d="M404.1-51.1c-0.7-0.3-1.3-0.5-2-0.8c2.3-3.8,6.2-6.6,7.2-11.4c0.2-0.8,0.6,0.8,1,1.2
		C409.8-57.5,406.2-54.7,404.1-51.1z"/>
	<path class="st23" d="M525.9,71.2c8.1,0,16.2,0,24.3,0c0,0.2,0,0.4,0,0.6c-8.1,0.1-16.1,0.1-24.2,0.2l-0.3-0.4L525.9,71.2z"/>
	<path class="st24" d="M333.4,97c1.8,0.2,2.7,2.7,5,1.7c-0.5-1.1-1-2.2-1.5-3.3c0-0.5,0.1-1,0.1-1.4c0.4,0.3,1,0.6,1.1,1
		c0.6,2,5.4,2.6,2.9,4.8C339.1,101.4,334.9,101,333.4,97z"/>
	<path class="st25" d="M411.2-73.1c0.2-4.8-4.7-6.1-6.4-9.7C411.9-80.7,412.9-79.2,411.2-73.1z"/>
	<path class="st26" d="M333,42.8c-1.2,5.9-2.1,11.9-4.9,17.4C328.7,54.1,329.7,48.1,333,42.8z"/>
	<path class="st27" d="M336.8-10c3.1,2.8,6.1,0.3,9.2,0c0.4,2.5-3.5,3.2-2.6,6c0,0.4-0.2,0.8-0.5,1.2C338.4-3.1,340-8.6,336.8-10z"
		/>
	<path class="st28" d="M409.1,111.1c0.6,0,1.8,0.3,1.5,0.6c-1.9,2.3-0.3,4.1,0.5,6c-0.3,0.6-0.7,0.8-1.3,0.4
		c-1.4,0.2-2.8,0.2-2.3-1.9C407.9,114.5,408.5,112.8,409.1,111.1z"/>
	<path class="st29" d="M420,120.5c2.4-1.4,5.3,0.1,7.8-0.8c-0.2-2.1-2.3-2-2.8-3.3c0-0.4,0-0.8,0-1.1c1,0.5,2.1,0.9,3.1,1.5
		c1.1,0.6,1.6,1.7,1.2,2.9c-0.3,1.1-1.4,1.4-2.4,1.4c-2.3,0-4.6-0.2-6.8-0.3L420,120.5z"/>
	<path class="st30" d="M327.9,61.8c0.3,4.5,0.6,9,0,13.6C326.4,70.9,326.5,66.3,327.9,61.8z"/>
	<path class="st31" d="M330,80.9c-0.5,3,1.6,5.6,1,8.6c-2-4-2.7-8.3-2.9-12.7C329.7,77.7,329.2,79.6,330,80.9z"/>
	<path class="st13" d="M432-7.4c0.3-2.6-2.1-3.5-3.2-5.2c0-0.4,0.1-0.8,0.4-1.2c0.8-0.7,1.4-1.7,2.8-1.2l0.3,0.3
		c-0.5,1.4-0.5,2.7,0.8,3.9C434.9-9.1,433.9-8.1,432-7.4z"/>
	<path class="st32" d="M407.9,99c1.5,1,1.2,3,2.3,4.2c-0.6,1.4,0.7,1.8,1.3,2.7c0.2,0.3,0,0.9,0,1.3c-0.5-0.2-1.1-0.5-1.6-0.7
		C408.6,104.2,408.2,101.6,407.9,99z"/>
	<path class="st33" d="M420,120.5v0.2c-3.4-0.9-6.8-1.7-10.2-2.6c0.4-0.1,0.9-0.2,1.3-0.3C414.3,118,417.7,117.2,420,120.5z"/>
	<path class="st34" d="M369.9-50.1c0.3,0,0.7,0,1,0l0.2,0.3c-2.4,3.2-5.7,3.2-9.1,2.7c0-0.3,0-0.6,0-0.8
		C364.6-48.7,367.3-49.4,369.9-50.1z"/>
	<path class="st35" d="M348,113.6c0,3.2-4.5,4.7-3.1,8.4C341.6,117.7,346,116.1,348,113.6z"/>
	<path class="st36" d="M352.3-38c-2.2,2-3.6,4.9-6.7,5.9C347.3-34.6,348.9-37.2,352.3-38z"/>
	<path class="st37" d="M354.8,101.9c-0.7,2.2,0.1,5.1-3,6.1c0.7-2.4,1.5-4.7,2.2-7.1C354.2,101.3,354.5,101.6,354.8,101.9z"/>
	<path class="st38" d="M343-2.9c0-0.3,0-0.7,0-1c3.2-0.5,6.2-0.5,8.1,2.8c-0.4,0.1-0.9,0.2-1.3,0.3C347.3-0.7,345-1.3,343-2.9z"/>
	<path class="st39" d="M360,75.6c-1.3-0.2-3.7,0.4-2.6-2c7.5-17.6,5.4-37.7,14.5-54.9c3.5-6.6,3-6.9,9.2-2.7c3.6,2.4,6.8,5.2,9,9
		c1,1.8,0.5,3.5-0.2,5.2c-5.1,13-10.7,25.7-19.2,36.9c-1.7,2.3-2.4,5.1-3.9,7.5c-1.7,1.8-3.6-0.8-5.3,0.3
		C361,75.1,360.5,75.4,360,75.6z"/>
	<path class="st40" d="M415.6,76c-1.4-1.1-2.7-2.7-4.6-0.9c-1.8-0.2-2.4,1.8-4,2.1c-1.7-1.8-1.4-3.8-1-5.9c0.4-1,2.5-1.8,0.2-3.2
		c-0.9-0.5-1.3-1.8-1.7-2.8c-3.4-11-4.7-22.3-5.5-33.6c1-4.7,3.7-8.7,5.9-12.8c0.6-1.1,1.5-2.2,3.1-1.9c4.4,3,4.3,8.2,5.2,12.5
		c2.5,11.4,2.8,23,1.5,34.7c-0.3,2.5-0.6,5,1.3,7.1C416,72.7,418.3,74.5,415.6,76z"/>
	<path class="st41" d="M351.1-1.1C348.4-2,345.7-3,343-3.9c-0.8-0.9-2.4-1.5-0.6-3c1.3-1,2.4-2.1,3.6-3.2c1.7-0.8,3.3-1.6,5-2.4
		c2.6-3.2,5.2-2.5,7.9,0c4.1,3.8,7,8.7,11.3,12.3c2.3,1.5,6.7,1.4,5.1,6.1c-1.1,3.3-2.6,3.6-5.4,1C365.1,0.9,358.1-0.1,351.1-1.1z"
		/>
	<path class="st42" d="M366,75.1c0.2-4.8,3.8-7.8,6.1-11.5c6.3-10.1,11.7-20.8,15.9-32c0.8-2.1,2.3-4.1,2.1-6.6
		c3.4,4.8,4,9.4,0.4,14.5c-5.7,8.1-10.8,16.6-16.4,24.8c-1.5,2.2-2.6,4-2.4,7.1c0.3,3.1-0.7,6.6-3.7,8.7c-0.1-1.6-0.8-3-2-4.1
		c-0.3-0.2-0.4-0.4-0.3-0.6C365.8,75.2,365.9,75.1,366,75.1z"/>
	<path class="st43" d="M407,70.2c0,2.3,0,4.6,0,6.9c-1.1,1.2-3.3,4.4-3.3,0.1c-0.1-14.5-7.9-27.1-9.7-41.1c0-0.3,0-0.7,0-1
		c2.1-1.3,3-4.1,5.9-4.2c1.8,10.3,2,20.8,5.1,30.9c0.4,1.4,0.6,2.9,0.9,4.3C405.1,67.8,408.2,68.4,407,70.2z"/>
	<path class="st44" d="M399.9,30.9c-1.7,1.8-3.2,3.8-5.9,4.2c4-6.5,5-13.9,5.9-21.2c0.3-2.4,0.1-4.8-3.2-5.6c3.9,2,7.3-5.5,11.1-0.3
		c0.5,1.9,1.6,3.7,1.1,5.8c0.1,1.5-0.5,2.6-1.8,3.2C404.7,21.6,402.3,26.3,399.9,30.9z"/>
	<path class="st45" d="M407,5c-2.1,0.1-4.3-1.2-6,1.4c-0.7,1.1-2.7,1.3-3.7,0.5c-5.1-4-10.3-0.3-15.5-0.3c-2,0-3.9,0.6-4.9-1.7
		c-0.2-0.2-0.3-0.4-0.5-0.6c-0.7-2.9,1.6-3.3,3.4-4.1c0.5-0.2,1-0.3,1.4-0.4c3.4-0.1,6.7-1.6,10.3-0.9c0.6,0.1-0.2,0.2,0.5,0.1
		c2.4-0.5,3.6-3.1,6.5-3.1c2.6,0,3.3,3.1,5.7,2.7c0.5-0.1,1,0,1.5,0.2C408.5,0.4,407.6,2.7,407,5z"/>
	<path class="st46" d="M360,75.6L360,75.6c2.5-2.5,2.9-2.5,3.9,0.3c2.3,6.7-1.9,12.4-3.1,18.5c-0.2,1.2-1.2,1.5-2.3,1.4
		c-1.2-0.1-1.6-1.1-1.6-2.1c0-2.6,0.6-5.2-0.2-7.8C356.9,82.1,355.9,78.1,360,75.6z"/>
	<path class="st47" d="M369.9,7.1c1.2-0.3,1.9,2.5,3.2,0.7c0.8-1.1,1.5-2.6,1.5-4c0-1.6-1.7-1.7-3-1.7c-1,0-2-0.1-2.5-1.1
		c5.4-2.3,6.7-1.6,8,4.1L377,5c0,2.6,0.5,5.3-3,6.5c-1.9,0.7-3.2,0.5-4.9-0.6C365.6,8.5,370.7,8.5,369.9,7.1z"/>
	<path class="st48" d="M407,5c0.6-2.6,0.5-4.9-2.5-5.9c1.3-2.5,1.3-5,0.8-7.7c-0.4-1.9-0.9-4.1,1.9-4.8c0.6,0.1,1.1,0.4,1.4,0.9
		c1.2,3.9,1.4,7.9-0.3,11.7c1.8,2.1-1,3.8-0.5,5.8C407.6,5,407.3,5,407,5z"/>
	<path class="st49" d="M684.8,32.1c13.7-11,21.8-10.7,31.9,0.8c4-4.2,8-8.5,14.4-8.9c11.4-0.6,18.4,5.1,18.7,16.9
		c0.5,21.3,0.2,42.7,0.2,64c0,2.4-0.9,3.2-3.2,3.1c-5.5-0.1-11-0.3-16.5,0.1c-4.1,0.3-5.4-0.9-5.3-5.2c0.2-19,0.1-38,0-57
		c0-1,0.1-2-0.1-3c-0.2-2-1.3-3.7-3.3-3.8c-2.3-0.1-3.5,1.6-3.6,3.9c-0.3,4.5-0.8,9-0.8,13.4c-0.1,15.7-0.1,31.3,0,47
		c0,3.4-0.8,4.8-4.4,4.6c-5.1-0.3-10.3-0.3-15.5,0c-3.5,0.2-4.5-1-4.5-4.5c0.2-17,0.1-34,0-51c0-3.3-0.5-6.6-0.7-9.9
		c-0.1-1.8-0.4-3.4-2.6-3.6s-3.5,1.1-4,3c-0.4,1.6-0.4,3.3-0.4,4.9c0,18.5-0.2,37,0.1,55.5c0.1,4.8-1.5,5.9-5.9,5.6
		c-5.3-0.3-10.7-0.2-16-0.1c-2.4,0-3.2-0.8-3.2-3.2c0.1-25.2,0.1-50.3,0-75.5c0-2.7,1-3.5,3.5-3.4c5.3,0.1,10.7,0.3,16,0
		C683.6,25.7,686.2,26.3,684.8,32.1z"/>
	<path class="st50" d="M423.9,87.9c5.2,1.5,10.3,3.2,15.2-0.9c1.6-1.3,2.8-2.8,3.5-4.7c0.5-1.5,0.4-2.9-1.7-2.2
		c-4.5,1.6-6.8-1.2-8.9-4.2c-4.5-6.6-6.8-14.2-9.1-21.8c0.4-7.6,0.9-15.3,1.1-22.9c0.2-10,4.9-17.2,13.9-21.1
		c12.7-5.4,25.2-4.6,36.7,3.3c7.7,5.2,9.2,13.4,9.4,22C484.2,46,484.1,46,473.4,46c-4,0-8-0.1-12,0c-2.6,0.1-3.5-0.7-3.5-3.4
		c0.1-4.7-0.1-9.3-0.5-14c-0.2-2.2-0.6-5.1-4-4.6c-2.8,0.4-3.5,2.6-3.5,5.2c0,19.7,0,39.3,0,59c0,2.8,0.4,5.7,4,5.7
		c3.2,0,3.7-2.6,4.1-5.2c0.7-4.1,0.5-8.3,0.5-12.4c0-2.5,1-5.7-3.5-5.4c-1,0.1-1.3-0.8-1.4-1.7c0-0.7,0-1.3-0.1-2
		C453.1,56,453.1,56,464.2,56c5.5,0,11,0.1,16.5,0c2.3-0.1,3.2,0.7,3.2,3.1c-0.1,15.7-0.1,31.3,0,47c0,2.6-1.1,3.1-3.3,3
		s-4.3-0.2-6.5,0c-4.5,0.4-8.4,0.1-8.6-6.7c-7.7,9.4-16.7,10.8-26.7,6.6C429.8,105.1,424.6,98,423.9,87.9z"/>
	<path class="st51" d="M455.9,82.4c0,2.3,0.1,4.6,0,6.9c0,1-0.6,2-1.7,2.1c-1.3,0.1-1.8-1.1-1.8-1.9c-0.2-4.9-0.2-9.9-0.2-14.8
		c0-1.3,0.8-1.6,2-1.6c1.2,0.1,1.8,0.8,1.8,1.9C456,77.4,456,79.9,455.9,82.4L455.9,82.4z"/>
	<path class="st50" d="M493,67.6c0.3-7.6-0.8-15.3,0.5-22.9c2.4-13.5,10.5-17.7,22.8-19.6c7.6-1.2,15.2,0.2,22,4
		c8,4.4,10.7,11.9,11.5,20.3c0.5,5.1,0.1,10.3,0.4,15.5c0.2,3.5-1.3,4.2-4.4,4.1c-7.8-0.2-15.7,0.1-23.5-0.1
		c-3.3-0.1-4.8,0.6-4.6,4.3c0.3,5,0.1,10,0.1,15c0,3-0.2,6.7,4.1,6.6c4.2-0.1,3.9-3.8,4-6.7c0.1-3.7,0.2-7.3,0.1-11
		c-0.1-2.4,0.9-3.2,3.2-3.2c6,0.1,12,0,18,0c1.3,0,2.9-0.1,2.9,1.8c-0.1,9.4,0.9,19-6.9,26.6c-8,7.9-17.7,8.3-27.8,7.2
		c-4.5-0.5-9.1-1.9-12.9-4.7c-6.2-4.5-9.3-10.7-9.6-18.3C492.8,80.3,493,74,493,67.6z"/>
	<path class="st52" d="M525.9,71.2c0,0.3,0.1,0.5,0.1,0.8c-3.6,3.8-1.4,8.5-2.1,12.8c-0.4,2.6,1.5,7.3-1.7,7.2
		c-3.7-0.1-1.7-4.8-2.1-7.5c-0.3-2.6,0.2-5.3-0.1-7.9C519.3,71.7,521.5,70.3,525.9,71.2z"/>
	<path class="st50" d="M618.3,34.1c5.7-5.9,10.5-9.4,17.2-9.1c9,0.4,15.4,6.4,15.4,15.4c0.1,17.8,0.2,35.6,0,53.4
		c-0.1,6.2-2.1,11.7-8.6,14.5c-6.8,2.9-13.1,2.6-18.9-2.2c-1.3-1.1-2.5-2.2-4.6-4c0,5.2-0.2,9.7,0.1,14.2c0.2,3.6-0.7,5.1-4.6,4.8
		c-5.3-0.3-10.7-0.3-16,0c-4.1,0.3-5.3-0.9-5.3-5.2c0.2-23.8,0.1-47.6,0.1-71.4c0-4.3,0.3-8.7-0.1-13c-0.3-3.9,1.2-4.8,4.8-4.6
		c5,0.3,10,0.1,15,0.1C616.6,26.9,620.8,26.1,618.3,34.1z"/>
	<path class="st25" d="M396.8-89.9c2.1,2.3,4.2,4.6,6.3,6.8c0.1,0.8-0.4,1-1,1.1c-1.9,2-4.4,2.8-7.1,2.9c-4.5,3.9-9.2,4.2-14.5,1.1
		c-2.8-1.6-6.2-2.2-9.3-3.2c-0.1-8,1.2-9.4,8.5-7C386-85.9,391.3-87.7,396.8-89.9z"/>
	<path class="st53" d="M377-58c-1.4-2.4,1.5-1.8,2-2.9c2.1-0.7,3.7-1.9,5-3.7c2-2.8,4.1-3.1,6.1,0c1.6,2.6,3.8,3.9,6.9,3.7
		c-0.1,2.1-0.1,4.1-3.2,3.2c-1.4-0.4-1.7,0.5-1.8,1.5C386.7-54.4,381.8-56,377-58z"/>
	<path class="st54" d="M371.3-72.1c4,0,6.9,0,9.8,0c1.3,0,2.4,0.5,2.5,1.8c0.2,1.3-0.7,1.9-1.9,2.4
		C377.6-66.2,374.9-68.4,371.3-72.1z"/>
	<path class="st51" d="M402-71.8c-2.1,3.5-4.9,4.5-8.5,3.9c-1.5-0.2-2.6-0.9-2.7-2.4c-0.1-1.7,1.6-2.3,2.7-2.3
		C396.3-72.6,399-72.1,402-71.8z"/>
	<path class="st55" d="M395-79c2.2-1.2,4.3-2.9,7.1-2.9C401.6-76.4,398.3-77.6,395-79z"/>
	<path class="st56" d="M407.1,17c0.6-1.1,1.2-2.1,1.8-3.2c5,8.3,6.5,17.6,7.1,27.1c0.5,5.4,1,10.8,0,16.1c0.6,4.7-2.2,9.3-0.1,14
		c-3.1-0.7-1.9-3.1-1.9-4.9c-0.1-12.4,0.7-24.9-2.2-37C410.9,25,410.9,20.2,407.1,17z"/>
	<path class="st57" d="M416,57.1c0-5.4,0-10.8,0-16.1c1.1,0.8,0.8,2,0.9,3.1c0,3,0,6,0,9.1c1.7-0.6,0.4-2.2,1.7-3.4
		c4.1,7.6,5.9,15.9,8.7,23.8C423.6,68,419.8,62.5,416,57.1z"/>
	<path class="st50" d="M584,59c0,15.3-0.1,30.6,0.1,45.9c0,3.2-0.9,4.3-4.2,4.2c-6.1-0.2-12.3-0.2-18.5,0c-2.5,0.1-3.5-0.6-3.5-3.3
		c0.1-31.1,0.1-62.2,0-93.3c0-2.6,0.8-3.5,3.4-3.4c6.3,0.2,12.6,0.2,19,0c3.3-0.1,3.8,1.3,3.7,4.1C583.9,28.3,584,43.7,584,59z"/>
	<path class="st58" d="M354.5,2.9c-2.6,12.1-6.8,23.5-12.8,34.6c-2.2-1.1-2.5-2.7-1.7-4.5c4.3-10.2,8.7-20.3,13.1-30.5
		C353.5,2.6,354,2.7,354.5,2.9z"/>
	<path class="st49" d="M759,66.8c0-12,0.1-24-0.1-36c-0.1-3.5,0.6-5.1,4.6-4.9c5.8,0.4,11.7,0.2,17.5,0c2.9-0.1,4.1,0.6,4.1,3.8
		c-0.1,24.8-0.1,49.6,0,74.4c0,2.7-0.5,3.9-3.5,3.8c-6.3-0.2-12.7-0.2-19,0c-3,0.1-3.6-1.2-3.6-3.8C759.1,91.7,759,79.2,759,66.8z"
		/>
	<path class="st59" d="M385.7-43.9c2.8-0.9,5.6,2.1,8.4-0.2c0.3-1.1,1.1-1.5,2.2-1.6c0.5,0,1,0.1,1.4,0.3c4.3,1.9,9.3,0.5,13.6,2.8
		c1.5,0.6,2.2,2.2,1.6,3.2c-1.9,3.4,0,6.2,1,9.1c0,2-1.1,3.2-3,3.6c-0.5,0-1,0-1.4-0.2c-5.6-4.1-10.2-9.3-16.3-12.7
		c-6.3,1-10.7,5.6-16.3,8c-1.8,0.8-3.3,3.1-5.8,1.6c-1.5-0.8-3.3-1.2-4.1-2.9c0.7-2.1,2.7-2,4.3-2.5c2.3-0.6,4.7-1.2,6.2-3.3
		c0.6-1,1.1-2.1,1.7-3.1C380.7-44.6,383.5-43.3,385.7-43.9z"/>
	<path class="st60" d="M380.7,1l-0.4,0.1c-3.3,1-4.9-0.4-6.7-3.3c-3.5-5.8-8.1-10.8-12.1-16.2c-0.9-1.2-1.8-1-3-0.4
		c-1.4,0.7-2.7,2.2-4.5,1c1.7-3.1,4.8-4.9,7.1-7.6c1.5-1.8,3.3-3.3,2.1-6.6c2,1.3,3.4,2.2,4.9,3.1c3.8,2.9,4.7,7.2,5.6,11.5
		c-2.1,4.4,1,6.8,3.7,9.3c1.9,3.5,4.8,4.4,8.6,3.4c2.8-0.7,5.8-1.4,8.3,1c0.3,2.4-1.1,3.3-3.2,3.2C387.6-0.8,384.2,0.3,380.7,1z"/>
	<path class="st61" d="M354-17.9c2.9,0,4.5-4.5,7.1-3.1c2.2,1.2,3.6,4.2,5,6.7c2.7,4.8,8.3,7.5,9.4,13.6c0.4,1.9,3,1.7,4.8,1.9
		c-1.5,1-4,1.1-3.2,4c-0.7-5.2-4.8-3.9-8-4.1c-3.3-3.7-6.8-7.3-9.8-11.2c-2.4-3.1-4.8-4.2-8.2-2.2C350.6-15.1,351.5-16.9,354-17.9z"
		/>
	<path class="st62" d="M393.7-4c-2.3,0.1-4.8-0.3-6.9,0.4c-5,1.6-8.6,0.6-10.8-4.3c-1.2-2.9-4.1-5.2-3.1-8.8
		c-0.9-4.3-3-8.2-4.8-12.2c0.8,0,1.6,0,2.3-0.1c0.8,0.4,1.9,0.5,2.5,1.3c2.9,4.3,3.7,9.4,5.7,14.1c2.8,6.9,2.7,6.9,10,6.3
		c3.3-0.1,6.6,0.2,9.9-0.5c2.6-0.3,4.1-1.7,4.9-4.3c0.8-2.7,1.5-5.5,2.3-8.2c0.8-2.1,1.3-4.2,2.5-6.1c0.5-0.6,1.1-1,1.9-0.8l0.1,0.3
		c2.8,3,1.2,5.8-0.2,8.7c-0.9,1.8-1.5,3.7-3,5.2c-2.1,2.6,0.3,5.3-0.2,8c-0.3,1.7,0.3,3.8-2.3,4.1l0,0c-0.5,0.2-0.8,0-0.9-0.6
		c0.2-1.1,0.9-2,1.2-3.2c-1.1,0.7-2,1.6-3.4,1.4C399-4.8,396.2-3.1,393.7-4z"/>
	<path class="st63" d="M385.7-43.9c-1.7,1.6-4.7,0.3-5.9,2.8c-7.1,1.6-14.1,4.6-21.7,2c-0.5-2,1.4-2.8,2.2-4.1
		C368.8-45.6,377.2-46.8,385.7-43.9z"/>
	<path class="st64" d="M378.9-38.1c-2.9,4.1-8,3.3-11.9,5.1c-2.6-0.3-5.2-0.6-7.8-0.9c-2.4,3.4-5.3,4.4-8.9,1.7
		c1.1-1.9,2.3-3.6,4.7-4c5.7-2.3,11.9-2.3,17.9-3.2C374.8-39.6,377.1-39.6,378.9-38.1z"/>
	<path class="st65" d="M378.9-38.1c-7.5,0.1-15.1,0.3-22.3,2.7c-0.7,0.2-1.2-0.2-1.7-0.7c1.1-1,2.2-2,3.3-2.9
		c7.3,0.4,14.3-2.7,21.7-2C379.5-40.1,379.2-39.1,378.9-38.1z"/>
	<path class="st66" d="M372.3-28c-0.8-0.1-1.8,0.2-1.9-1c0.2-0.3,0.5-0.6,0.7-0.9c5.4-3,10.9-6,16.3-9.1c2-1.2,4-2.4,6.4-1.9
		c0.7,1.6-0.8,2-1.5,2.8c-4.5,2.7-9,5.6-13.6,8.1C376.6-29.3,374.8-27.5,372.3-28z"/>
	<path class="st67" d="M350.2-32.1c3.2,0.4,6.2,0.4,8.9-1.7c-0.4,1.8,2.2,1.8,2.1,4c-4.1,0.4-8,2.6-12.3,0.8c-0.5-1.3,0.6-2,1-3
		L350.2-32.1z"/>
	<path class="st68" d="M349.9-32c0.5,1.3-0.7,2-1,3c-1.3,2-2.6,4-3.9,5.9C345.5-26.8,346.5-30.1,349.9-32z"/>
	<path class="st69" d="M396.1-45c-0.7,0.3-1.4,0.6-2,0.9c-0.8-0.1-1.9,0.1-2.3-0.3c-0.8-0.9,0.3-1.3,0.9-1.7c1.5-1,2.9-1.9,4.4-2.9
		c0.9-0.4,1.8-0.7,2.7-1.1l0.2,0.2c0.6,0.5,0.6,1.1,0,1.6c-1,0.1-2.1,0.3-2.1,1.6C398-45.3,396.5-45.7,396.1-45z"/>
	<path class="st70" d="M377-58c5,0.9,9.8,2.8,15,1.8C386.6-53.7,381.7-54.8,377-58z"/>
	<path class="st71" d="M364,75.9c-1.1-2.5-2.6-1.2-4-0.3c1.6-4.9,3.9-1.5,6-0.5c0,0.3,0,0.6,0.1,0.9c0,0.5-0.1,1-0.1,1.5
		C365.3,76.9,364.6,76.4,364,75.9z"/>
	<path class="st72" d="M410.2,97c-0.5-6.4-3.9-12.7-0.1-19.1c3.7-2.2,5.4-1.4,5.4,2.7c0,3.8-0.4,7.6-0.5,11.4
		C414.9,95.2,413.5,97,410.2,97z"/>
	<path class="st73" d="M408.4-0.8c-0.2-4.1-0.4-8.1-0.6-12.2c-0.1-0.9,0.1-1.7,0.5-2.4c1.2-1.9,1.3-5.8,3.3-5.5c3,0.5,6.4,2.3,7.5,6
		c-2,3.5-4.1,7.1-6.1,10.6C411-3.7,410.8-0.8,408.4-0.8z"/>
	<path class="st74" d="M419.1-14.8c-0.3-0.4-0.6-0.8-1-1c-2.2-1.5-4.5-3-6.8-4.6c-1.2,2.5-2.4,5-3.6,7.4h-0.4h-0.4
		c-0.3-1.9,0.8-3.5,1.6-5.1c1.4-2.8,2.4-5.6,1.6-8.8c1.3-0.6,2.4-1.4,3-2.8c0.4-0.8,0.2-2.4,1.4-2.3c1.2,0.1,1.2,1.4,1.1,2.4
		c-0.2,9.2,0.1,9.6,8.7,12.7c1.9,0.7,4.3,1,4.8,3.7c-0.2,0.1-0.3,0.3-0.3,0.5C425.5-13.2,422.6-15.4,419.1-14.8z"/>
	<path class="st49" d="M772,21c-1.3,0-2.7,0-4,0c-9.3,0-9.2,0-9-9.3c0.1-2.7,0.7-3.9,3.6-3.8c6.3,0.2,12.6,0.1,19,0
		c2.5,0,3.4,0.6,3.6,3.3c0.4,9.7,0.5,9.7-9.1,9.7C774.6,21,773.3,21,772,21z"/>
	<path class="st75" d="M362-47.1c3.1-0.6,6.3-1.1,9.1-2.7c1.2,0.1,2.6,0.2,2.5,1.7c-0.1,1.2-1.5,0.9-2.5,1c-3.5,0.5-7,1.1-10.6,1.7
		C360.4-46.5,361.3-46.7,362-47.1z"/>
	<path class="st76" d="M429.1-13.2c-1.5-1.6-3.6-2.1-5.6-2.7c-8.7-2.8-10.4-5.4-8.7-14.1c0.1-0.4,0.5-1.5-0.7-0.7
		c-0.4,0.2-0.6,0.7-1,1.1c-0.1-1.2-0.5-2.3-1.4-3.1c-1.7-1.5-3.2-2.8-0.3-4.9c1.1-0.8,1.2-3-0.7-4.2c-4.1-3.1-9.2-1.2-13.6-3
		c-0.4,0-0.7-0.1-1.1-0.1c0.6-0.5,1.2-1.1,1.8-1.6c7.6-1.2,13.7,0.5,17.4,8c1,2.1,3.5,3.4,5.3,5.1c0.8,0.8,2.1,1.7,0,2.5
		c-1.1,0.7-2.6,1.1-1.9,2.9c0.9,2.2,2.6,1.4,4.2,1.2c1.9,0.2,3.2,0.8,4,2.8c1.4,3.2,3.3,6.1,5,9.1C430.9-14.7,430.7-12.8,429.1-13.2
		z"/>
	<path class="st77" d="M423-26.9c-0.9,1.1-1.4,3.3-3.6,1.7c-1.8-1.3-3.1-3.1-2.3-5.4c0.8-2.3,2.3-0.8,3.5-0.4
		C421.4-29.6,422.2-28.3,423-26.9z"/>
	<path class="st78" d="M400-48.2c0-0.5,0-1.1,0-1.6c2.2,0.1,4.6-0.7,6.4,1.6C404.2-47.5,402.1-48.1,400-48.2z"/>
	<path class="st79" d="M385,22c3.9,2.3,3.6,4.8,0.6,7.9c-5.5,5.7-10.6,11.7-15.9,17.5c-0.7,0.8-1.3,1.6-2.4,1.3
		c-1.5-0.3-1.5-1.7-1.3-2.8c0.4-2.7,0.4-5.5,1.9-8c3.8-3.6,7.3-7.5,10.7-11.5C380.4,24.6,381.6,21.7,385,22z"/>
	<path class="st80" d="M385,22c-5.2,3.6-8.3,9.2-12.7,13.6c-1.4,1.4-2.4,2.6-4.4,2.4c1.1-6.9,4-13.1,6.4-19.6c1-2.6,2.6-3.1,5-1.8
		C381.7,17.9,383.5,19.8,385,22z"/>
	<path class="st81" d="M407.1,20.7c2.8,4.8,2.8,9.4,3.7,13.6c0.4,2.1-0.6,3-3,2.2c-5.4-1.9-6.4-4-4-9.2
		C404.8,25.4,405.8,23.5,407.1,20.7z"/>
	<path class="st82" d="M407,70.2c0-1.5-3.1-2.1-1.1-4.1c0.9,1.9,3.3,2.7,3.8,5C408.5,71.6,408,70.3,407,70.2z"/>
	<path class="st48" d="M404.1-1.9c0.1,0.3,0.3,0.6,0.4,1c-0.6,1.6-1,1.5-2.1,0.2c-2.5-2.8-5.6-3.5-7.8-0.1c-1.6,2.4-3.2,0.6-4.6,0.7
		c-3.1,0.3-6.1,1.7-9.3,1.1c3-1.5,6.2-1.9,9.5-2c1.9-0.1,3.8-0.2,3.4-3c2.8-1.3,5.7-1.3,8.6-0.1C403-3.6,404-3.1,404.1-1.9z"/>
	<path class="st83" d="M398.7-0.9c1.3,0.5,3.1,0.7,3,2.6c-0.1,1.6-0.8,3.3-2.9,3.2c-2.5-0.1-1.7-2.4-2.2-3.7
		C396.2-0.4,397.5-0.8,398.7-0.9z"/>
	<path class="st84" d="M518,48.7c0-1.7-0.1-3.3,0-5c0.2-1.9,0.9-3.6,3.2-3.7s3.3,1.7,3.5,3.5c0.3,3.3,0.1,6.6,0.3,9.9
		c0.1,2.9-1.8,2.5-3.6,2.6c-2,0.1-3.7-0.1-3.4-2.8C518.1,51.7,518,50.2,518,48.7L518,48.7z"/>
	<path class="st1" d="M626,67.5c0,7.3,0.1,14.6,0,21.9c0,2.4,0.1,5.6-3.4,5.5c-3.3-0.1-3.5-2.9-3.5-5.5c0-14.6,0-29.2,0-43.8
		c0-2.5,0-5.4,3.5-5.4c3.6,0,3.4,3,3.5,5.5C626,52.9,626,60.2,626,67.5z"/>
	<path class="st85" d="M392.2-39.3c0.6-0.6,1.1-1.1,1.7-1.7c5.6,4.4,11.4,8.5,16.2,13.8c-0.4,0.5-0.8,0.9-1.2,1.4
		C402.2-29,397-33.9,392.2-39.3z"/>
	<path class="st86" d="M397.2-44.9c4.8-0.4,9.7-0.7,13.6,3C406.4-43.7,401.2-41.4,397.2-44.9z"/>
	<path class="st87" d="M372.9-16.8c0.7,3.1,3.2,5.5,3.1,8.8C373.7-10.5,369.6-12.4,372.9-16.8z"/>
	<path class="st88" d="M359.9-18.5c-0.3,1.9,1.1,4.2-1.1,5.3c-0.9,0.4-2.1-1.1-2.3-2.1C356-17.7,357.9-18.1,359.9-18.5z"/>
	<path class="st89" d="M399.1-7.1c-3.5,2.2-7.4,0.6-11.1,1c-10.4-2.1-13.6-11.8-7.6-22.6c1.4-1.7,3.2-2.7,5.2-3.5
		c9.1-3.5,12.8-1.1,13.5,8.5c-0.2,3.3-2.8,3.6-5.2,4.3c-3.7,1.1-4,2-2.8,5.4c1.2-0.4,0.7-1.7,1.3-2.4c1.6-2.1,3.7-1.9,5.9-1.4
		c2.3,0.5,2.8,2.2,2.5,4.2C400.5-11.4,400.6-9,399.1-7.1z"/>
	<path class="st90" d="M398.1-23c0-0.2-0.1-0.3-0.1-0.5c-0.7-2.8,0.5-7.2-2-8.1c-4-1.5-8.7-0.6-12.6,2c-0.8,0.5-1.5,1.2-2.3,1.9
		c-1.7-0.4-3.4-0.8-3.1-3.2c4.7-2.8,9.4-5.6,14-8.4c6,4,11.3,8.8,16.6,13.5c-0.6,1.9-1.3,3.8-1.9,5.7
		C403.4-19.3,400.7-21.1,398.1-23z"/>
	<path class="st91" d="M398.1-23c3.2,0,5.8,2.1,8.7,2.9c-1,3.2-2,6.5-2.8,9.7c-0.7,2.7-2.2,3.7-4.9,3.2c0.2-2.1,0.1-4.4,0.6-6.4
		c0.7-3.2-0.7-3.6-3.4-3.6c-2.4,0-4,0.2-2.8,3.3c0.3,0.8,0.8,2-0.4,2.6c-1,0.5-1.9-0.1-2.7-0.8c-1.4-1.2-2.6-2.5-1.9-4.7
		c0.9-2.7,2.9-3.8,5.5-4.3C395.5-21.3,397.9-19.9,398.1-23z"/>
	<path class="st92" d="M378.1-30.9c1,1.1,2,2.1,3.1,3.2c-5.2,10.3-3.1,16.9,6.9,21.6c-7.5,0.9-7.6,0.9-10.4-6.6
		c-2-5.1-4.4-10-5.3-15.4C374.2-29,376.2-29.9,378.1-30.9z"/>
	<path class="st93" d="M404.1-1.9c-0.8-0.6-1.8-1-1.9-2.2c1.2-1,2.3-2,3.7-3.1C405.6-5.2,407.2-2.7,404.1-1.9z"/>
	<path class="st94" d="M523,48.9c0,0.8,0,1.6,0,2.5c-0.1,1.1,0,2.5-1.7,2.3c-1.3-0.1-1.2-1.4-1.2-2.3c0-1.6-0.1-3.3,0-4.9
		c0.1-1.2-0.4-3.1,1.3-3.1c1.5,0,1.5,1.8,1.6,3.1C523,47.3,523,48.1,523,48.9z"/>
	<path class="st95" d="M622.4,42.7c2.1,1,1.5,2.8,1.5,4.4c0,13.5,0,26.9,0,40.4c0,0.5,0,1,0,1.5c0,1.2-0.2,2.7-1.5,2.8
		c-1.5,0.1-1.4-1.6-1.4-2.7c0-2.8,0-5.6,0-8.5c0-11,0-21.9,0-32.9C621.1,45.9,620.5,43.9,622.4,42.7z"/>
</g>
</svg>
