<?xml version="1.0" encoding="utf-8"?>
<!-- Generator: Adobe Illustrator 19.0.0, SVG Export Plug-In . SVG Version: 6.00 Build 0)  -->
<svg version="1.1" id="Layer_1" xmlns="http://www.w3.org/2000/svg" xmlns:xlink="http://www.w3.org/1999/xlink" x="0px" y="0px"
	 viewBox="-499 501 24 24" style="enable-background:new -499 501 24 24;" xml:space="preserve">
<style type="text/css">
	.st0{fill:#37474F;}
	.st1{fill:#90A4AE;}
</style>
<path class="st0" d="M-487,503c5.5,0,10,4.5,10,10c0,5.5-4.5,10-10,10s-10-4.5-10-10C-497,507.5-492.5,503-487,503"/>
<path class="st1" d="M-487,505c-4.4,0-8,3.6-8,8s3.6,8,8,8s8-3.6,8-8S-482.6,505-487,505"/>
<path class="st0" d="M-488,518v-1h-2v-2h4v-1h-3c-0.6,0-1-0.4-1-1v-3c0-0.6,0.4-1,1-1h1v-1h2v1h2v2h-4v1h3c0.6,0,1,0.4,1,1v3
	c0,0.6-0.4,1-1,1h-1v1H-488z"/>
</svg>
