<?xml version="1.0" encoding="utf-8"?>
<!-- Generator: Adobe Illustrator 19.0.0, SVG Export Plug-In . SVG Version: 6.00 Build 0)  -->
<svg version="1.1" id="Layer_1" xmlns="http://www.w3.org/2000/svg" xmlns:xlink="http://www.w3.org/1999/xlink" x="0px" y="0px"
	 viewBox="-347 259 96 96" style="enable-background:new -347 259 96 96;" xml:space="preserve">
<style type="text/css">
	.st0{fill:#FFFFFF;}
	.st1{fill:none;stroke:#4CAF50;stroke-width:2;stroke-miterlimit:10;}
</style>
<path id="XMLID_5_" class="st0" d="M-316.5,279.5c-11.8,0-21.5,9.6-21.5,21.4c0,1.9,0.4,3.9,0.9,5.8h15.9l5-13.1
	c1.2-3.2,5.7-3.4,7.3,0l8,20.9l2.3-5.5c0.5-1.3,1.8-2.3,3.5-2.3h34.2c0.5-1.9,0.9-3.9,0.9-5.8c0-11.8-9.6-21.4-21.4-21.4
	c-7.3,0-13.6,3.7-17.5,9.1C-302.9,283.2-309.2,279.5-316.5,279.5L-316.5,279.5 M-334.1,312.6c-2.2,0-3.9,1.7-3.9,3.9
	s1.7,3.9,3.9,3.9h9.5l21.7,21.4c3.9,3.5,3.9,3.5,7.8,0l21.7-21.4h9.4c2.2,0,3.9-1.7,3.9-3.9s-1.7-3.9-3.9-3.9h-29.5l-3.7,9
	c-1.6,3.9-6.1,3.4-7.4,0.1l-8-20.8l-3.8,9.1c-0.6,1.5-1.9,2.6-3.7,2.6H-334.1z"/>
<path class="st1" d="M-341.4,309.5l21.4,0c0.6,0,1.2-0.4,1.5-1l4.9-12.2c0.4-0.9,1.7-0.9,2.1,0l9.9,23.3c0.4,0.9,1.6,0.9,2,0l4-9.2
	c0.2-0.4,0.6-0.7,1-0.7h39.4"/>
</svg>
