<?xml version="1.0" encoding="utf-8"?>
<!-- Generator: Adobe Illustrator 19.0.0, SVG Export Plug-In . SVG Version: 6.00 Build 0)  -->
<svg version="1.1" id="Layer_1" xmlns="http://www.w3.org/2000/svg" xmlns:xlink="http://www.w3.org/1999/xlink" x="0px" y="0px"
	 viewBox="-347 259 96 96" style="enable-background:new -347 259 96 96;" xml:space="preserve">
<style type="text/css">
	.st0{fill:#FFFFFF;}
	.st1{filter:url(#Adobe_OpacityMaskFilter);}
	.st2{fill:none;stroke:#FFFFFF;stroke-miterlimit:10;}
	.st3{mask:url(#SVGID_1_);}
	.st4{fill:#4CAF50;}
</style>
<g>
	<g id="XMLID_11_">
		<path id="XMLID_12_" class="st0" d="M-264.9,297.4l-0.1-0.1l-2.7-2.7c2.3-0.5,4.7-2.4,4.7-4.4c0-2.3-3.2-3-5.8-3
			c-2.8,0-3.2,1.9-3.2,3.3l-7.1-6.8c-1.5-1.5-4.1-2.6-6.2-2.6H-299l0,0h-13.8c-2.1,0-4.7,1.1-6.2,2.6l-7,6.7c0-1.3-0.4-3.3-3.2-3.3
			c-2.7,0-5.8,0.9-5.8,3c0,1.9,2.4,3.9,4.7,4.4l-2.7,2.7c-0.1,0-0.1,0-0.1,0.1c-2.9,2.6-4.9,7.2-4.9,10.5v10c0,2.4,1,4.6,2.6,6.2
			v3.9c0,2.3,1.9,4.1,4.3,4.1h5.1c2.3,0,4.3-1.8,4.3-4.1v-1h22.7l0,0h22.9v1c0,2.3,1.9,4.1,4.3,4.1h5.1c2.3,0,4.3-1.8,4.3-4.1V324
			c1.6-1.6,2.6-3.9,2.6-6.2v-10C-260.1,304.4-262,299.8-264.9,297.4z M-316.3,286.7c1-0.9,2.7-1.5,3.5-1.5h13.8l0,0h13.8
			c0.9,0,2.6,0.6,3.5,1.5l9.2,9H-299l0,0h-26.5L-316.3,286.7z M-334.8,306.4c0-2.4,1.9-4.5,4.3-4.5s10.1,4.5,10.1,7.1
			c0,2.4-7.8,1.9-10.1,1.9C-332.8,310.7-334.8,308.8-334.8,306.4z M-321.9,322.6h-0.9h-0.9h-4.9c-1.3-0.4-2.3-0.9-2.9-1.5
			c-0.4-0.2-0.6-0.5-0.9-0.9c-0.2-0.2-0.4-0.6-0.5-0.9c-0.6-1.7,0.6-3.3,0.6-3.3h8.3l5.5,6.3L-321.9,322.6L-321.9,322.6z
			 M-287.1,322.6H-299l0,0h-11.9c-2.4,0-4.5-2.1-4.5-4.5h16.4l0,0h16.4C-282.6,320.6-284.7,322.6-287.1,322.6z M-286,315h-13l0,0
			h-13c-2.7,0-4.9-3.3-4.9-7.4h17.9l0,0h17.9C-281.1,311.7-283.3,315-286,315z M-265.4,319.5c-0.1,0.2-0.2,0.5-0.5,0.9
			c-0.2,0.2-0.5,0.6-0.9,0.9c-0.7,0.5-1.6,1-2.9,1.5h-4.9h-0.9h-0.9h-3.6l5.5-6.3h8.3C-266,316.2-264.8,317.8-265.4,319.5z
			 M-267.5,310.7c-2.3,0-10.1,0.6-10.1-1.9c0-2.6,7.8-7.1,10.1-7.1c2.4,0,4.3,1.9,4.3,4.5C-263.2,308.8-265.2,310.7-267.5,310.7z"/>
	</g>
	<defs>
		<filter id="Adobe_OpacityMaskFilter" filterUnits="userSpaceOnUse" x="-294.7" y="310.8" width="29.4" height="31.4">
			
				<feColorMatrix  type="matrix" values="-1 0 0 0 1  0 -1 0 0 1  0 0 -1 0 1  0 0 0 1 0" color-interpolation-filters="sRGB" result="source"/>
			<feFlood  style="flood-color:white;flood-opacity:1" result="back"/>
			<feBlend  in="source" in2="back" mode="normal"/>
		</filter>
	</defs>
	<mask maskUnits="userSpaceOnUse" x="-294.7" y="310.8" width="29.4" height="31.4" id="SVGID_1_">
		<g class="st1">
			<g>
				<line class="st2" x1="-294.7" y1="325.9" x2="-265.3" y2="325.9"/>
				<line class="st2" x1="-280" y1="348.2" x2="-280" y2="307.6"/>
			</g>
		</g>
	</mask>
	<g class="st3">
		<g>
			<path class="st4" d="M-280.3,342.1c-1.4-1-2.8-1.9-4.1-3c-6-5.1-9.3-11.6-10.2-19.5c-0.1-0.5-0.1-1-0.2-1.5c0-1.4,0-2.7,0-4.1
				c0-0.3,0-0.5,0.1-0.8c0.1-0.2,0.2-0.4,0.4-0.5c3.2-0.9,6.3-1.5,9.6-1.8c0.7-0.1,1.4-0.1,2.1-0.2c1.4,0,2.9,0,4.3,0
				c0.1,0,0.3,0.1,0.4,0.1c3.8,0.2,7.6,0.9,11.3,1.8c0.9,0.2,0.9,0.2,1.1,1.1c0,0.1,0,0.2,0.1,0.2c0,1.4,0,2.7,0,4.1
				c-0.1,1-0.2,2.1-0.4,3.1c-1.4,8.7-5.9,15.4-13.2,20.3c-0.3,0.2-0.6,0.4-0.9,0.6C-279.9,342.1-280.1,342.1-280.3,342.1z"/>
		</g>
	</g>
</g>
</svg>
