<?xml version="1.0" encoding="utf-8"?>
<!-- Generator: Adobe Illustrator 19.0.0, SVG Export Plug-In . SVG Version: 6.00 Build 0)  -->
<svg version="1.1" id="Layer_1" xmlns="http://www.w3.org/2000/svg" xmlns:xlink="http://www.w3.org/1999/xlink" x="0px" y="0px"
	 viewBox="0 0 96 96" style="enable-background:new 0 0 96 96;" xml:space="preserve">
<style type="text/css">
	.st0{fill:#FFFFFF;}
</style>
<path class="st0" d="M48,6.5c3.9,0,7.1,3.2,7.1,7.1c0,2.7-1.5,4.9-3.5,6.1v4.5h3.5c13.7,0,24.9,11.1,24.9,24.9l0,0h3.5
	c1.9,0,3.5,1.6,3.5,3.5v10.6c0,1.9-1.6,3.5-3.5,3.5h-3.5v3.5c0,3.9-3.2,7.1-7.1,7.1H23.1c-3.9,0-7.1-3.2-7.1-7.1v-3.5h-3.5
	c-1.9,0-3.5-1.6-3.5-3.5V52.6c0-1.9,1.6-3.5,3.5-3.5h3.5c0-13.7,11.1-24.9,24.9-24.9h3.5v-4.5c-2.1-1.2-3.5-3.5-3.5-6.1
	C40.9,9.7,44.1,6.5,48,6.5 M32,45.5c-4.9,0-8.9,4-8.9,8.9s4,8.9,8.9,8.9s8.9-4,8.9-8.9S36.9,45.5,32,45.5 M64,45.5
	c-4.9,0-8.9,4-8.9,8.9s4,8.9,8.9,8.9s8.9-4,8.9-8.9S68.8,45.5,64,45.5z"/>
</svg>
