<?xml version="1.0" encoding="utf-8"?>
<!-- Generator: Adobe Illustrator 19.0.0, SVG Export Plug-In . SVG Version: 6.00 Build 0)  -->
<svg version="1.1" id="Layer_1" xmlns="http://www.w3.org/2000/svg" xmlns:xlink="http://www.w3.org/1999/xlink" x="0px" y="0px"
	 viewBox="-347 259 96 96" style="enable-background:new -347 259 96 96;" xml:space="preserve">
<style type="text/css">
	.st0{filter:url(#Adobe_OpacityMaskFilter);}
	.st1{fill:none;stroke:#000000;stroke-width:0.35;stroke-miterlimit:10;}
	.st2{mask:url(#SVGID_1_);fill:#FFFFFF;}
	.st3{fill:#FFFFFF;}
	.st4{fill:#4CAF50;}
	.st5{opacity:0.25;}
	.st6{opacity:0.5;}
</style>
<defs>
	<filter id="Adobe_OpacityMaskFilter" filterUnits="userSpaceOnUse" x="-321.4" y="264.6" width="41.2" height="84.9">
		<feFlood  style="flood-color:white;flood-opacity:1" result="back"/>
		<feBlend  in="SourceGraphic" in2="back" mode="normal"/>
	</filter>
</defs>
<mask maskUnits="userSpaceOnUse" x="-321.4" y="264.6" width="41.2" height="84.9" id="SVGID_1_">
	<g class="st0">
		<g>
			<circle cx="-307.4" cy="269.9" r="0.7"/>
			<path d="M-297.8,270.3h-5.9c-0.2,0-0.4-0.2-0.4-0.4l0,0c0-0.2,0.2-0.4,0.4-0.4h5.9c0.2,0,0.4,0.2,0.4,0.4l0,0
				C-297.4,270.1-297.6,270.3-297.8,270.3z"/>
			<circle class="st1" cx="-300.8" cy="344" r="3"/>
			<rect x="-319.1" y="274.7" width="36.3" height="64.2"/>
		</g>
	</g>
</mask>
<path class="st2" d="M-286.4,264.6h-28.7c-3.4,0-6.2,2.8-6.2,6.2v72.4c0,3.4,2.8,6.2,6.2,6.2h28.7c3.4,0,6.2-2.8,6.2-6.2v-72.4
	C-280.2,267.4-283,264.6-286.4,264.6z"/>
<rect x="-321.6" y="282.6" class="st3" width="0.3" height="6.3"/>
<polygon class="st3" points="-321.6,282.6 -321.6,288.9 -321.8,288.7 -321.8,282.8 "/>
<g>
	<rect x="-321.5" y="275.3" class="st3" width="0.2" height="3.3"/>
	<polygon class="st3" points="-321.5,275.3 -321.5,278.7 -321.6,278.6 -321.6,275.4 	"/>
</g>
<rect x="-321.6" y="290.4" class="st3" width="0.3" height="6.3"/>
<polygon class="st3" points="-321.6,290.4 -321.6,296.7 -321.8,296.5 -321.8,290.6 "/>
<rect x="-280.2" y="282.6" class="st3" width="0.3" height="6.3"/>
<polygon class="st3" points="-279.9,288.9 -279.9,282.6 -279.8,282.8 -279.8,288.8 "/>
<g>
	<g>
		<polygon class="st4" points="-296.8,299 -296.8,290.5 -304.8,290.5 -304.8,299 -313.3,299 -313.3,307 -304.8,307 -304.8,315.5 
			-296.8,315.5 -296.8,307 -288.3,307 -288.3,299 		"/>
	</g>
</g>
<g class="st5">
	<g>
		<polygon class="st4" points="-287.3,328 -287.3,325.9 -289.3,325.9 -289.3,328 -291.4,328 -291.4,330 -289.3,330 -289.3,332.1 
			-287.3,332.1 -287.3,330 -285.2,330 -285.2,328 		"/>
	</g>
</g>
<g class="st6">
	<g>
		<polygon class="st4" points="-290.8,317.6 -290.8,313.4 -294.8,313.4 -294.8,317.6 -299,317.6 -299,321.6 -294.8,321.6 
			-294.8,325.9 -290.8,325.9 -290.8,321.6 -286.5,321.6 -286.5,317.6 		"/>
	</g>
</g>
</svg>
