<?xml version="1.0" encoding="utf-8"?>
<!-- Generator: Adobe Illustrator 19.0.0, SVG Export Plug-In . SVG Version: 6.00 Build 0)  -->
<svg version="1.1" id="Layer_1" xmlns="http://www.w3.org/2000/svg" xmlns:xlink="http://www.w3.org/1999/xlink" x="0px" y="0px"
	 viewBox="0 0 96 96" style="enable-background:new 0 0 96 96;" xml:space="preserve">
<style type="text/css">
	.st0{fill:#FFFFFF;}
</style>
<path id="XMLID_15_" class="st0" d="M79.2,58.3H16.8V34.8h11.7v7.8h7.8v-7.8h23.4v7.8h7.8v-7.8h11.7 M79.2,77.8H16.8v-7.8h62.4
	 M36.3,19.3h23.4V27H36.3 M79.2,27H67.5v-7.8c0-4.4-3.4-7.8-7.8-7.8H36.3c-4.4,0-7.8,3.4-7.8,7.8V27H16.8C12.4,27,9,30.5,9,34.8
	v42.9c0,4.4,3.4,7.8,7.8,7.8h62.4c4.4,0,7.8-3.4,7.8-7.8V34.8C87,30.5,83.6,27,79.2,27z"/>
</svg>
